<svg xmlns="http://www.w3.org/2000/svg" viewBox="0 0 50.11 49.97"><defs><style>.a{fill:#fd4c42;}.b{fill:#1298f4;}.c{fill:#42bf1e;}.d{fill:#fed104;}.e{fill:#b95dd1;}.f{fill:#fea005;}</style></defs><path class="a" d="M33,1.32A24.21,24.21,0,0,1,48.72,16.77a14.63,14.63,0,0,1,1,4,1.27,1.27,0,0,1-.22.88c-2.8,3.92-6,7.31-11,8.26-3.68.7-7-.46-10.13-2.31-1.16-.69-2.5-1.24-3.2-2.54a.52.52,0,0,1,.12-.45,28.49,28.49,0,0,0,6.52-4.57A12.75,12.75,0,0,0,35,6.57a22.53,22.53,0,0,0-1.6-3.67C33.11,2.41,32.73,1.94,33,1.32Z"/><path class="b" d="M41.18,44c-5.64,5.52-16.84,7.66-24,4.6-2.55-2.15-3.34-5.15-3.72-8.23-.91-7.49,4.88-13,10.25-15.33a1.22,1.22,0,0,1,1.32,0c.77,1.52.11,3.13.26,4.7.74,7.93,5.36,12.7,13.3,13.48A4.29,4.29,0,0,1,41.18,44Z"/><path class="c" d="M25,25c-5.53,2-9.61,5.53-11,11.46-.82,3.44.06,6.72,1.69,9.8.43.82,1,1.58,1.45,2.36A24.54,24.54,0,0,1,.42,29.14,1.62,1.62,0,0,1,.78,28a21.55,21.55,0,0,1,6.08-6c4.46-2.74,9-2.3,13.56-.28A12.8,12.8,0,0,1,25,24.47.72.72,0,0,1,25,25Z"/><path class="d" d="M25.08,24.8A20.9,20.9,0,0,0,15,20.53c-5.57-.66-9.52,2.18-12.82,6.24C1.53,27.52,1,28.35.42,29.14a23.8,23.8,0,0,1,3.1-16.87A19.67,19.67,0,0,1,9,5.9a3.72,3.72,0,0,1,2-.21A24.85,24.85,0,0,1,17.1,7.18c5.47,2.14,7.85,6.49,8.52,12,.22,1.86.76,3.77-.36,5.55v.12Z"/><path class="e" d="M25.08,24.8l.18.07c8.27,7,16.07,6.48,22.81-1.85.58-.72,1.1-1.49,1.65-2.23A24,24,0,0,1,46.9,37.23,20.61,20.61,0,0,1,41.18,44a42.11,42.11,0,0,1-6.5-1.14c-6.05-1.75-8.95-6.41-9.77-12.36A23.17,23.17,0,0,1,25,25Z"/><path class="f" d="M25.26,24.75A18.59,18.59,0,0,0,24.83,17c-1.56-6.25-4.7-8.88-11.13-10.45C12.18,6.21,10.58,6.12,9,5.9A23.42,23.42,0,0,1,23.26.08,22.06,22.06,0,0,1,33,1.32a20.49,20.49,0,0,1,3.1,8.62c.4,5.29-2.15,9.15-6.07,12.31A12.71,12.71,0,0,1,25.26,24.75Z"/></svg>