<svg xmlns="http://www.w3.org/2000/svg" viewBox="0 0 50 50">
  <path d="M17 3 A 2.0002 2.0002 0 1 0 17 7C20.505571 7 21.721693 8.0662214 22.361328 8.9453125C23.000963 9.8244036 23 10.558594 23 10.558594L23 23L20 23 A 2.0002 2.0002 0 1 0 20 27L23 27L23 39.365234L23 39.472656L23 39.482422 A 2.0002 2.0002 0 0 0 23 39.503906C23 39.503906 23.02318 40.216318 22.414062 41.072266C21.804945 41.928214 20.604208 43 17 43 A 2.0002 2.0002 0 1 0 17 47C20.902525 47 23.517169 45.730163 25.035156 44.150391C26.556624 45.721098 29.156697 47 33 47 A 2.0002 2.0002 0 1 0 33 43C29.494429 43 28.278307 41.933779 27.638672 41.054688C26.999037 40.175596 27 39.441406 27 39.441406L27 39.419922L27 27L30 27 A 2.0002 2.0002 0 1 0 30 23L27 23L27 10.527344L27 10.517578C27 10.517578 26.98425 9.7973341 27.603516 8.9335938C28.222779 8.0698873 29.428621 7 33 7 A 2.0002 2.0002 0 1 0 33 3C29.108204 3 26.494263 4.2794991 24.976562 5.8613281C23.456683 4.285324 20.852711 3 17 3 z" fill="#333333" />
</svg>