<svg xmlns="http://www.w3.org/2000/svg" viewBox="0 0 26 26">
  <path d="M3 5C2.449219 5 2 5.449219 2 6L2 8C2 8.550781 2.449219 9 3 9L3.25 9L5.53125 22.71875C5.53125 22.738281 5.53125 22.761719 5.53125 22.78125C5.695313 23.570313 6 24.320313 6.5625 24.9375C7.125 25.554688 7.984375 26 8.9375 26L17.0625 26C18.011719 26 18.867188 25.582031 19.4375 24.96875C20.007813 24.355469 20.320313 23.5625 20.46875 22.75C20.46875 22.738281 20.46875 22.730469 20.46875 22.71875L22.78125 9L23 9C23.550781 9 24 8.550781 24 8L24 6C24 5.449219 23.550781 5 23 5 Z M 5.25 9L5.9375 9L7.125 10.1875L5.6875 11.59375 Z M 7.34375 9L8.28125 9L7.8125 9.46875 Z M 9.65625 9L11.34375 9L12.25 9.90625L10.25 11.90625L8.5 10.15625 Z M 12.78125 9L13.125 9L12.96875 9.1875 Z M 14.5625 9L16.25 9L17.40625 10.15625L15.65625 11.90625L13.65625 9.875 Z M 17.625 9L18.5625 9L18.09375 9.46875 Z M 19.96875 9L20.78125 9L20.34375 11.6875L18.8125 10.15625 Z M 12.9375 10.59375L14.96875 12.59375L12.9375 14.59375L10.9375 12.59375 Z M 7.8125 10.875L9.53125 12.59375L7.53125 14.59375L5.90625 12.96875L5.875 12.8125 Z M 18.09375 10.875L20.09375 12.875L18.375 14.625L16.375 12.59375 Z M 10.25 13.3125L12.25 15.3125L10.25 17.3125L8.25 15.3125 Z M 15.65625 13.3125L17.6875 15.3125L15.6875 17.3125L13.65625 15.3125 Z M 19.84375 14.5625L19.625 15.875L19.0625 15.3125 Z M 6.1875 14.65625L6.84375 15.3125L6.375 15.78125 Z M 7.53125 16L9.53125 18L7.53125 20.03125L6.96875 19.46875L6.5625 16.96875 Z M 12.9375 16L14.96875 18.03125L12.96875 20.03125L10.9375 18 Z M 18.375 16L19.4375 17.0625L19.03125 19.34375L18.375 20L16.375 18 Z M 10.25 18.71875L12.25 20.71875L10.25 22.75L8.25 20.75 Z M 15.65625 18.71875L17.65625 20.71875L15.65625 22.71875L13.65625 20.71875 Z M 7.5625 21.4375L9.5625 23.4375L9 24L8.9375 24C8.546875 24 8.316406 23.871094 8.0625 23.59375C7.816406 23.324219 7.574219 22.894531 7.46875 22.40625L7.46875 22.375L7.34375 21.625 Z M 12.96875 21.4375L14.96875 23.4375L14.40625 24L11.5 24L10.9375 23.4375 Z M 18.375 21.4375L18.65625 21.71875L18.53125 22.375C18.53125 22.386719 18.535156 22.394531 18.53125 22.40625C18.4375 22.894531 18.214844 23.328125 17.96875 23.59375C17.71875 23.863281 17.460938 24 17.0625 24L16.9375 24L16.375 23.4375Z" fill="crimson" />
</svg>